<?xml version="1.0" encoding="UTF-8"?>
<svg id="Layer_1" data-name="Layer 1" xmlns="http://www.w3.org/2000/svg" xmlns:xlink="http://www.w3.org/1999/xlink" viewBox="0 0 476.87 476.87">
  <defs>
    <style>
      .cls-1 {
        fill: url(#linear-gradient);
      }

      .cls-1, .cls-2 {
        stroke-width: 0px;
      }

      .cls-2 {
        fill: #fff;
      }
    </style>
    <linearGradient id="linear-gradient" x1="23.54" y1="340.13" x2="499.03" y2="115.12" gradientUnits="userSpaceOnUse">
      <stop offset="0" stop-color="#7d4290"/>
      <stop offset=".5" stop-color="#2c0c34"/>
      <stop offset="1" stop-color="#4c3393"/>
    </linearGradient>
  </defs>
  <rect class="cls-1" x="0" y="0" width="476.87" height="476.87"/>
  <g>
    <g>
      <path class="cls-2" d="M141.06,139.4c.64-15.75,6.46-34.75,16.1-52.84,20.42-10.64,43.22-17.39,67.4-19.2-.85,3.95-1.96,8.01-3.3,12.1-3.22,9.86-7.76,20.01-13.4,29.78-11.28,19.55-26.1,36.04-40.64,45.26-11.24,7.12-18.79,7.7-21.11,6.36-2.34-1.35-5.6-8.17-5.05-21.46Z"/>
      <path class="cls-2" d="M346.71,104.89l-38.64,29.74-.31.24h-.01s-.32.27-.32.27l-229.58,176.79c-9.48-21.52-14.74-45.31-14.74-70.33,0-35.03,10.31-67.63,28.05-94.98,1.09,25.77,11.13,46.62,29.98,57.5,8.49,4.91,17.89,7.35,27.85,7.35,14.19,0,29.51-4.96,44.98-14.77,10.73-6.81,21.17-15.75,30.86-26.33,9.69-10.58,18.63-22.8,26.32-36.15,12.01-20.77,20.15-42.76,23.66-63.46,20.36,4.38,39.41,12.32,56.45,23.11.05.03.1.06.14.09.05.02.09.05.12.09,5.27,3.34,10.34,6.96,15.2,10.84Z"/>
      <path class="cls-2" d="M346.96,105.09l-39.29,30.26-.32.25h-.01l-.32.26-229.05,176.38s-.05-.1-.06-.15c-.02-.05-.05-.1-.06-.15l229.58-176.79.32-.26h.01s.31-.25.31-.25l38.64-29.74s.09.06.12.1c.04.03.07.06.12.1Z"/>
      <path class="cls-2" d="M346.07,378.85c-.07.05-.14.1-.21.16s-.16.12-.24.19l-25.47,2.17-.19.02h-.17s-12.88,1.11-12.88,1.11c-.62.05-1.25.07-1.86.07-5.03,0-9.86-1.75-13.75-5.03-4.37-3.69-7.05-8.84-7.53-14.54-.11-1.27-.1-2.54.01-3.76.01-.14.02-.27.05-.41h0c0-.16.03-.29.04-.42l.2-.37s0-.01.01-.02l.22-.41,6.15-11.59.21-.41h0s.21-.4.21-.4l11.92-22.5-64.93,33.98c-3.86,2.02-8.07,3.05-12.32,3.05-.66,0-1.34-.03-2.01-.07h-.06c-4.38-.07-8.79-1.22-12.85-3.56-12.7-7.35-17.08-23.66-9.74-36.38l36-62.35-129.91,100.03s-.07-.07-.1-.11c-.05-.04-.09-.07-.11-.12l130.53-100.51.32-.25.32-.25-.21.36h0s-.2.35-.2.35l-36.38,63.01c-7.26,12.57-2.94,28.69,9.63,35.95,2.46,1.41,5.05,2.4,7.68,2.95.03.01.06.01.09.03.74.16,1.5.27,2.24.34.01.01.02.01.04.01l.29.05c.8.09,1.61.14,2.41.15h.05c.91.07,1.84.09,2.75.05.05,0,.1,0,.15-.01.7-.01,1.39-.05,2.06-.14,3.17-.36,6.28-1.31,9.18-2.84l65.33-34.19.25-.12.24-.12-.12.24-.12.25-11.77,22.2-.17.34h0s-.19.36-.19.36l-7,13.19c-.17,1.46-.2,2.95-.07,4.45.47,5.61,3.11,10.71,7.42,14.33,4.31,3.64,9.78,5.37,15.39,4.88l13.07-1.12h.19s.19-.02.19-.02l25.75-2.2Z"/>
      <path class="cls-2" d="M387.02,332.69c-.02.06-.05.11-.09.16-.04.06-.06.11-.11.16l-43.01,3.69-.19.02h-.19s.1-.16.1-.16l.07-.15,25.7-48.52.12-.24h0s.14-.25.14-.25l11.83-22.35c5.45-10.28,1.51-23.07-8.76-28.52-3.15-1.66-6.52-2.45-9.84-2.45-2.6,0-5.16.49-7.57,1.41l-4.45,2.32-.94.5-.72.37-57.3,29.99-.26.14h-.01l-.25.12.14-.24h0s.15-.25.15-.25l55.34-95.87.2-.34h0s.22-.39.22-.39l24.5-42.45s.09.09.11.12c.05.05.09.09.11.14l-24.07,41.69-.21.36h0s-.2.36-.2.36l-55.48,96.09,58.46-30.59c1.42-.99,2.95-1.8,4.56-2.39.35-.15.69-.27,1.04-.37h.01c.26-.1.52-.17.8-.25,5.11-1.44,10.76-1,15.8,1.67,10.43,5.52,14.43,18.5,8.89,28.93l-11.63,21.96-.12.24-.12.25-25.81,48.73,43.04-3.69Z"/>
    </g>
    <g>
      <path class="cls-2" d="M307.01,135.86l-229.05,176.38s-.05-.1-.06-.15l229.31-176.58h0s.34-.26.34-.26l.32-.25,38.96-30.01s.07.06.12.1l-39.29,30.26-.32.25h-.01l-.32.26Z"/>
      <path class="cls-2" d="M237.6,256.39l.32-.25-.21.36h0s-.32.25-.32.25h0s-.32.25-.32.25h0s-130.21,100.28-130.21,100.28c-.05-.04-.09-.07-.11-.12l130.53-100.51.32-.25Z"/>
      <path class="cls-2" d="M412.62,241.61c0,8.19-.56,16.25-1.66,24.14,0,.06-.01.12-.03.19,0,.06-.01.12-.03.19-3.39,24.12-11.69,46.66-23.89,66.57l-43.04,3.69,25.81-48.73.12-.25.12-.24,11.63-21.96c5.53-10.43,1.54-23.41-8.89-28.93-5.05-2.67-10.69-3.11-15.8-1.67-.27.07-.54.15-.8.25h-.01c-.35.1-.69.22-1.04.37-1.61.59-3.14,1.4-4.56,2.39l-58.46,30.59,55.48-96.09.2-.35h0s.21-.37.21-.37l24.07-41.69c3.92,4.68,7.6,9.58,11.01,14.67.02.04.06.09.1.14.02.05.05.09.07.14,12.42,18.56,21.36,39.64,25.93,62.3,0,.05.01.1.03.16.01.05.03.1.04.15,2.21,11.11,3.37,22.6,3.37,34.37Z"/>
      <path class="cls-2" d="M372.07,129.69l-24.07,41.69-.21.36h0s-.34.26-.34.26h0s-.32.25-.32.25l.22-.37,24.5-42.45s.09.09.11.12c.05.05.09.09.11.14Z"/>
      <path class="cls-2" d="M413.75,53.46c-.01.07-.03.15-.03.22l-.17.14h-.01l-.17.14c.01-.07.03-.14.03-.21h0s.19-.15.19-.15l.17-.14Z"/>
      <path class="cls-2" d="M346.84,104.99s-.09-.07-.12-.1l-38.64,29.74-.31.24h-.01s-.32.27-.32.27l-229.58,176.79s.04.1.06.15c.01.05.04.1.06.15l229.05-176.38.32-.26h.01l.32-.25,39.29-30.26s-.09-.07-.12-.1ZM347.67,171.61h-.01s-.31.26-.31.26l-.22.37h0s-.2.35-.2.35l.32-.25.34-.25.2-.35h0s.21-.37.21-.37l-.32.24ZM237.6,256.39l-.32.25-130.53,100.51s.06.09.11.12c.02.04.06.07.1.11l129.91-100.03.32-.26.32-.25.2-.34h0s.21-.37.21-.37l-.32.25ZM413.61,53.38l-.19.15c-.01.07-.03.14-.04.21h0c0,.09-.01.15-.03.22l.17-.14h.01l.17-.14c0-.07.01-.15.03-.22s.01-.15.03-.21l-.16.12Z"/>
    </g>
    <g>
      <path class="cls-2" d="M303.29,322.08l-.25.12-65.33,34.19c-2.9,1.52-6.01,2.47-9.18,2.84-.67.09-1.36.12-2.06.14-.05.01-.1.01-.15.01-.91.04-1.84.03-2.75-.05h-.05c-.8-.01-1.61-.06-2.41-.15.86.15,1.72.25,2.6.31h.04c.6.04,1.19.06,1.79.06h.35c.1-.01.2-.01.29-.01,3.92-.09,7.9-1.06,11.62-3.01l65.13-34.08.24-.12.25-.14.12-.24-.24.12ZM372.78,236.26c-5.05-2.67-10.69-3.11-15.8-1.67-.27.07-.54.15-.8.25h-.01l-.86.45h-.01s-1.81.96-1.81.96c-.03,0-.04.01-.06.03-.04.03-.09.04-.12.06-.01.01-.04.03-.06.04s-.05.02-.07.04c-.06.03-.11.06-.17.1l-2.32,1.21-.91.47s-.01,0-.01.01l-57.78,30.22h0s-.26.14-.26.14h0s-.26.14-.26.14h0s-.14.25-.14.25l.25-.12h.01l.26-.14,57.3-29.99.72-.37.94-.5,4.45-2.32c2.41-.92,4.97-1.41,7.57-1.41,3.32,0,6.7.79,9.84,2.45,10.27,5.45,14.2,18.24,8.76,28.52l-11.83,22.35-.14.24.24-.12h.01l.24-.12.12-.24,11.63-21.96c5.53-10.43,1.54-23.41-8.89-28.93Z"/>
      <path class="cls-2" d="M303.29,322.08l-.25.12-65.33,34.19c-2.9,1.52-6.01,2.47-9.18,2.84-.67.09-1.36.12-2.06.14-.05.01-.1.01-.15.01-.91.04-1.84.03-2.75-.05h-.05c-.8-.01-1.61-.06-2.41-.15l-.29-.05s-.03,0-.04-.01c-.74-.06-1.5-.17-2.24-.34.86.24,1.74.42,2.61.56h.04c.06.01.12.02.19.02.7.12,1.39.21,2.09.27h.06c.67.05,1.35.07,2.01.07,4.25,0,8.46-1.02,12.32-3.05l64.93-33.98.24-.12.25-.12.12-.25.12-.24-.24.12ZM356.18,234.84h-.01c-.35.1-.69.22-1.04.37l-1.59.82s-.03.01-.04.03l-.94.49c-.05.01-.09.04-.12.06l-1.87.99-58.46,30.59-.26.14h-.01l-.25.14-.15.24h0s-.14.25-.14.25l.25-.12h.01l.26-.14,57.3-29.99.72-.37.94-.5,4.45-2.32,1.05-.54s0-.01.01-.01c0,0,.01-.01.03,0,0,0,.01-.03.02-.01l.64-.35c-.27.07-.54.15-.8.25ZM369.81,287.28h-.01l-.22.12-.14.24h0s-.12.25-.12.25l.24-.12.25-.12.12-.25.12-.24-.24.12Z"/>
    </g>
    <g>
      <path class="cls-2" d="M320.14,381.06l-.09.16-.09.17h-.17s-12.88,1.11-12.88,1.11c-.62.05-1.25.07-1.86.07-5.03,0-9.86-1.75-13.75-5.03-4.37-3.69-7.05-8.84-7.53-14.54-.11-1.27-.1-2.54.01-3.76.01-.14.02-.27.05-.41h0s.19-.36.19-.36l.21-.39h0s6.57-12.42,6.57-12.42l.2-.37h.01s.17-.37.17-.37h.01l11.83-22.35.12-.24.14-.25.24-.12-.12.24-.12.25-11.77,22.2-.17.34h0s-.19.36-.19.36l-7,13.19c-.17,1.46-.2,2.95-.07,4.45.47,5.61,3.11,10.71,7.42,14.33,4.31,3.64,9.78,5.37,15.39,4.88l13.07-1.12h.19Z"/>
      <path class="cls-2" d="M381.54,265.12l-11.73,22.16h-.01l-.11.24h-.01l-.12.25-25.75,48.62-.09.16-.09.17h-.19s.1-.16.1-.16l.07-.15,25.7-48.52.12-.24h0s.14-.25.14-.25l11.83-22.35c5.45-10.28,1.51-23.07-8.76-28.52-3.15-1.66-6.52-2.45-9.84-2.45-2.6,0-5.16.49-7.57,1.41l-4.45,2.32-.94.5c.26-.21.54-.41.81-.6.57-.41,1.17-.77,1.79-1.11.04-.03.07-.05.12-.06l.94-.49s.02-.03.04-.03c.57-.27,1.16-.52,1.75-.74h.01c.32-.14.65-.25.97-.34,0,0,0-.01.01-.01,0,0,.01-.01.03,0,0,0,.01-.03.02-.01,2.07-.67,4.25-1.01,6.45-1.01,3.35,0,6.75.8,9.92,2.47,10.38,5.5,14.33,18.35,8.83,28.72Z"/>
      <path class="cls-2" d="M303.29,322.08l-.25.12-.12.25-.12.24-11.92,22.5-.21.39h0s-.21.42-.21.42l-6.15,11.59-.22.41s-.01.02-.01.02l-.2.37c-.01.14-.04.26-.04.41h0c-.03.15-.04.29-.05.42l.19-.35.19-.36,7-13.19.19-.35h0s.17-.35.17-.35l11.77-22.2.12-.25.12-.24-.24.12ZM320.14,381.06h-.19s-.07.17-.07.17l-.09.17h.17s.19-.04.19-.04l.09-.16.09-.16h-.19ZM372.78,236.26c-5.05-2.67-10.69-3.11-15.8-1.67-.27.07-.54.15-.8.25h-.01c-.35.1-.69.22-1.04.37-1.61.59-3.14,1.4-4.56,2.39-.29.19-.55.39-.82.6,0,0-.01,0-.01.01-.21.15-.41.31-.61.49l.72-.37.94-.5c.71-.49,1.45-.92,2.2-1.31.06-.04.11-.07.17-.1.03-.01.05-.02.07-.04s.05-.03.06-.04c.04-.02.09-.04.12-.06.02-.01.04-.03.06-.03.57-.27,1.15-.54,1.75-.75,2.41-.92,4.97-1.41,7.57-1.41,3.32,0,6.7.79,9.84,2.45,10.27,5.45,14.2,18.24,8.76,28.52l-11.83,22.35-.14.24h0s-.12.25-.12.25l-25.7,48.52-.07.15-.1.17h.19s.19-.04.19-.04l.09-.16.09-.16,25.81-48.73.12-.25.12-.24,11.63-21.96c5.53-10.43,1.54-23.41-8.89-28.93Z"/>
    </g>
    <g>
      <path class="cls-2" d="M345.62,379.2c-10.96,8.59-22.97,15.92-35.83,21.72-.07.04-.15.07-.22.1-.07.04-.15.07-.22.1-17.19,7.72-35.85,12.74-55.44,14.53-.06,0-.11.01-.17.01h-.01c-.06.01-.12.01-.19.03-5.17.45-10.39.69-15.68.69-52.11,0-98.89-22.81-130.89-58.99l129.91-100.03-36,62.35c-7.33,12.72-2.96,29.03,9.74,36.38,4.06,2.34,8.47,3.49,12.85,3.56h.06c.67.05,1.35.07,2.01.07,4.25,0,8.46-1.02,12.32-3.05l64.93-33.98-11.92,22.5-.21.39h0s-.21.42-.21.42l-6.15,11.59-.22.41s-.01.02-.01.02l-.2.37c-.01.14-.04.26-.04.41h0c-.03.15-.04.29-.05.42-.11,1.22-.12,2.49-.01,3.76.49,5.7,3.16,10.86,7.53,14.54,3.9,3.29,8.72,5.03,13.75,5.03.61,0,1.24-.03,1.86-.07l12.88-1.1h.17s.19-.04.19-.04l25.47-2.17Z"/>
      <path class="cls-2" d="M346.07,378.85c-.07.05-.14.1-.21.16l-25.62,2.2h-.19s-.17.02-.17.02l-12.98,1.11c-.62.05-1.24.07-1.85.07-10.92,0-20.19-8.36-21.14-19.43-.12-1.39-.1-2.76.05-4.1.01-.15.03-.29.05-.42.01-.15.04-.29.05-.44,0,0,0-.01.01-.02l.22-.41,6.15-11.59.21-.41h0c.11-.11.21-.21.34-.3h.01c.1-.12.21-.21.32-.3l-.19.35-7,13.19c-.17,1.46-.2,2.95-.07,4.45.47,5.61,3.11,10.71,7.42,14.33,4.31,3.64,9.78,5.37,15.39,4.88l13.07-1.12h.19s.19-.02.19-.02l25.75-2.2Z"/>
      <path class="cls-2" d="M386.94,332.85c-.04.06-.06.11-.11.16l-43.01,3.69-.19.02h-.19s.1-.16.1-.16h.17s.19-.03.19-.03l43.04-3.69Z"/>
      <path class="cls-2" d="M320.33,381.05h-.19s-.19.02-.19.02l-13.07,1.12c-5.61.49-11.08-1.25-15.39-4.88-4.31-3.62-6.95-8.72-7.42-14.33-.12-1.5-.1-2.99.07-4.45.03-.15.05-.3.07-.45h0c.01-.17.04-.32.07-.49l-.22.41s-.01.02-.01.02l-.2.37c-.01.14-.04.26-.04.41h0c-.03.15-.04.29-.05.42-.11,1.22-.12,2.49-.01,3.76.49,5.7,3.16,10.86,7.53,14.54,3.9,3.29,8.72,5.03,13.75,5.03.61,0,1.24-.03,1.86-.07l12.88-1.1h.17s.19-.04.19-.04l25.47-2.17c.08-.06.16-.12.24-.19s.14-.11.21-.16l-25.75,2.2ZM291.15,345.34l.19-.35h0s.17-.35.17-.35c-.11.09-.21.17-.31.27h-.01c-.11.1-.21.17-.31.27l-.21.39h0s-.21.42-.21.42c.11-.12.24-.24.35-.34.11-.11.24-.21.35-.32ZM343.99,336.37h-.19s-.19.04-.19.04l-.07.15-.1.17h.19s.19-.04.19-.04l43.01-3.69s.07-.1.11-.16c.04-.05.06-.1.09-.16l-43.04,3.69Z"/>
    </g>
  </g>
</svg>