<?xml version="1.0" encoding="UTF-8"?>
<svg id="Layer_1" data-name="Layer 1" xmlns="http://www.w3.org/2000/svg" xmlns:xlink="http://www.w3.org/1999/xlink" viewBox="0 0 467.87 467.87">
  <defs>
    <style>
      .cls-1 {
        fill: url(#linear-gradient);
      }

      .cls-1, .cls-2 {
        stroke-width: 0px;
      }

      .cls-2 {
        fill: #fff;
      }
    </style>
    <linearGradient id="linear-gradient" x1="23.1" y1="333.71" x2="489.61" y2="112.94" gradientUnits="userSpaceOnUse">
      <stop offset="0" stop-color="#210c35"/>
      <stop offset="1" stop-color="#3e246b"/>
    </linearGradient>
  </defs>
  <rect class="cls-1" x="0" y="0" width="467.87" height="467.87"/>
  <g>
    <g>
      <path class="cls-2" d="M138.4,131.07c.63-15.46,6.34-34.1,15.8-51.84,20.04-10.44,42.41-17.06,66.12-18.84-.83,3.87-1.92,7.86-3.24,11.88-3.16,9.67-7.61,19.63-13.15,29.22-11.07,19.18-25.6,35.36-39.87,44.41-11.03,6.99-18.43,7.55-20.71,6.24-2.29-1.32-5.49-8.02-4.95-21.06Z"/>
      <path class="cls-2" d="M340.17,97.22l-37.91,29.18-.31.23h-.01s-.32.27-.32.27l-225.25,173.45c-9.3-21.12-14.46-44.45-14.46-69,0-34.37,10.11-66.36,27.52-93.19,1.07,25.29,10.92,45.74,29.42,56.42,8.33,4.82,17.55,7.21,27.32,7.21,13.92,0,28.95-4.87,44.14-14.49,10.53-6.68,20.77-15.46,30.27-25.84,9.51-10.38,18.27-22.37,25.82-35.47,11.78-20.38,19.77-41.95,23.21-62.26,19.98,4.3,38.67,12.08,55.39,22.67.05.02.1.06.13.09.05.02.09.05.12.09,5.17,3.27,10.15,6.83,14.92,10.64Z"/>
      <path class="cls-2" d="M340.41,97.42l-38.55,29.69-.32.25h-.01l-.32.26-224.72,173.05s-.05-.1-.06-.15c-.02-.05-.05-.1-.06-.15l225.25-173.45.32-.26h.01s.31-.25.31-.25l37.91-29.18s.09.06.12.1c.04.02.07.06.12.1Z"/>
      <path class="cls-2" d="M339.54,366.01c-.07.05-.13.1-.21.16s-.16.12-.23.18l-24.99,2.13-.18.02h-.17s-12.64,1.09-12.64,1.09c-.61.05-1.23.07-1.83.07-4.94,0-9.67-1.72-13.49-4.94-4.29-3.62-6.91-8.68-7.39-14.27-.11-1.25-.1-2.49.01-3.69.01-.13.02-.27.05-.4h0c0-.16.02-.28.04-.42l.2-.37s0-.01.01-.02l.22-.4,6.03-11.37.21-.4h0s.21-.39.21-.39l11.69-22.07-63.71,33.34c-3.79,1.99-7.92,2.99-12.08,2.99-.65,0-1.31-.02-1.97-.07h-.06c-4.3-.07-8.63-1.2-12.61-3.49-12.46-7.21-16.75-23.21-9.56-35.69l35.32-61.17-127.46,98.14s-.07-.07-.1-.11c-.05-.04-.09-.07-.11-.12l128.07-98.62.32-.25.32-.25-.21.36h0s-.2.34-.2.34l-35.69,61.82c-7.12,12.33-2.88,28.15,9.45,35.27,2.41,1.38,4.95,2.35,7.54,2.89.02.01.06.01.09.02.72.16,1.47.27,2.19.33.01.01.02.01.04.01l.28.05c.78.09,1.58.13,2.37.15h.05c.89.07,1.8.09,2.7.05.05,0,.1,0,.15-.01.69-.01,1.36-.05,2.02-.13,3.11-.36,6.17-1.29,9.01-2.78l64.1-33.55.25-.12.23-.12-.12.23-.12.25-11.55,21.78-.17.33h0s-.18.36-.18.36l-6.86,12.94c-.17,1.43-.2,2.89-.07,4.36.47,5.5,3.05,10.5,7.28,14.06,4.23,3.57,9.6,5.27,15.1,4.79l12.82-1.1h.18s.18-.02.18-.02l25.26-2.16Z"/>
      <path class="cls-2" d="M379.72,320.72c-.02.06-.05.11-.09.16-.04.06-.06.11-.11.16l-42.2,3.62-.18.02h-.18s.1-.16.1-.16l.07-.15,25.21-47.6.12-.23h0s.13-.25.13-.25l11.61-21.93c5.34-10.09,1.48-22.64-8.59-27.98-3.09-1.63-6.4-2.4-9.66-2.4-2.55,0-5.06.48-7.43,1.38l-4.36,2.28-.92.49-.71.37-56.22,29.43-.26.13h-.01l-.25.12.13-.23h0s.15-.25.15-.25l54.3-94.06.2-.33h0s.22-.38.22-.38l24.03-41.65s.09.09.11.12c.05.05.09.09.11.13l-23.62,40.9-.21.36h0s-.2.36-.2.36l-54.43,94.28,57.36-30.02c1.4-.97,2.89-1.76,4.47-2.34.34-.15.67-.27,1.02-.37h.01c.26-.1.51-.17.78-.25,5.01-1.41,10.55-.98,15.5,1.64,10.23,5.42,14.16,18.15,8.73,28.39l-11.41,21.55-.12.23-.12.25-25.32,47.81,42.22-3.62Z"/>
    </g>
    <g>
      <path class="cls-2" d="M301.22,127.61l-224.72,173.05s-.05-.1-.06-.15l224.98-173.25h0s.33-.26.33-.26l.32-.25,38.23-29.44s.07.06.12.1l-38.55,29.69-.32.25h-.01l-.32.26Z"/>
      <path class="cls-2" d="M233.12,245.86l.32-.25-.21.36h0s-.32.25-.32.25h0s-.32.25-.32.25h0s-127.75,98.38-127.75,98.38c-.05-.04-.09-.07-.11-.12l128.07-98.62.32-.25Z"/>
      <path class="cls-2" d="M404.83,231.36c0,8.04-.55,15.95-1.63,23.68,0,.06-.01.12-.02.18,0,.06-.01.12-.02.18-3.32,23.67-11.47,45.78-23.43,65.31l-42.22,3.62,25.32-47.81.12-.25.12-.23,11.41-21.55c5.43-10.23,1.51-22.97-8.73-28.39-4.95-2.62-10.49-3.05-15.5-1.64-.27.07-.53.15-.78.25h-.01c-.34.1-.67.22-1.02.37-1.58.58-3.08,1.37-4.47,2.34l-57.36,30.02,54.43-94.28.2-.34h0s.21-.37.21-.37l23.62-40.9c3.85,4.6,7.45,9.4,10.8,14.39.02.04.06.09.1.13.02.05.05.09.07.13,12.18,18.21,20.96,38.89,25.44,61.12,0,.05.01.1.02.16.01.05.02.1.04.15,2.17,10.9,3.31,22.17,3.31,33.72Z"/>
      <path class="cls-2" d="M365.05,121.55l-23.62,40.9-.21.36h0s-.33.26-.33.26h0s-.32.25-.32.25l.22-.37,24.03-41.65s.09.09.11.12c.05.05.09.09.11.13Z"/>
      <path class="cls-2" d="M405.94,46.76c-.01.07-.02.15-.02.22l-.17.13h-.01l-.17.13c.01-.07.02-.13.02-.21h0s.18-.15.18-.15l.17-.13Z"/>
      <path class="cls-2" d="M340.29,97.32s-.09-.07-.12-.1l-37.91,29.18-.31.23h-.01s-.32.27-.32.27l-225.25,173.45s.04.1.06.15c.01.05.04.1.06.15l224.72-173.05.32-.26h.01l.32-.25,38.55-29.69s-.09-.07-.12-.1ZM341.11,162.68h-.01s-.31.26-.31.26l-.22.37h0s-.2.34-.2.34l.32-.25.33-.25.2-.34h0s.21-.37.21-.37l-.32.23ZM233.12,245.86l-.32.25-128.07,98.62s.06.09.11.12c.02.04.06.07.1.11l127.46-98.14.32-.26.32-.25.2-.33h0s.21-.37.21-.37l-.32.25ZM405.8,46.68l-.18.15c-.01.07-.02.13-.04.21h0c0,.09-.01.15-.02.22l.17-.13h.01l.17-.13c0-.07.01-.15.02-.22s.01-.15.02-.21l-.16.12Z"/>
    </g>
    <g>
      <path class="cls-2" d="M297.56,310.31l-.25.12-64.1,33.55c-2.84,1.5-5.9,2.43-9.01,2.78-.66.09-1.34.12-2.02.13-.05.01-.1.01-.15.01-.89.04-1.8.02-2.7-.05h-.05c-.78-.01-1.58-.06-2.37-.15.85.15,1.69.25,2.55.31h.04c.59.04,1.16.06,1.75.06h.34c.1-.01.2-.01.28-.01,3.85-.09,7.75-1.04,11.4-2.95l63.91-33.44.23-.12.25-.13.12-.23-.23.12ZM365.75,226.11c-4.95-2.62-10.49-3.05-15.5-1.64-.27.07-.53.15-.78.25h-.01l-.85.44h-.01s-1.78.94-1.78.94c-.02,0-.04.01-.06.02-.04.02-.09.04-.12.06-.01.01-.04.02-.06.04s-.05.02-.07.04c-.06.02-.11.06-.17.1l-2.28,1.19-.89.47s-.01,0-.01.01l-56.69,29.65h0s-.26.13-.26.13h0s-.26.13-.26.13h0s-.13.25-.13.25l.25-.12h.01l.26-.13,56.22-29.43.71-.37.92-.49,4.36-2.28c2.37-.91,4.88-1.38,7.43-1.38,3.26,0,6.57.77,9.66,2.4,10.07,5.34,13.94,17.89,8.59,27.98l-11.61,21.93-.13.23.23-.12h.01l.23-.12.12-.23,11.41-21.55c5.43-10.23,1.51-22.97-8.73-28.39Z"/>
      <path class="cls-2" d="M297.56,310.31l-.25.12-64.1,33.55c-2.84,1.5-5.9,2.43-9.01,2.78-.66.09-1.34.12-2.02.13-.05.01-.1.01-.15.01-.89.04-1.8.02-2.7-.05h-.05c-.78-.01-1.58-.06-2.37-.15l-.28-.05s-.02,0-.04-.01c-.72-.06-1.47-.17-2.19-.33.85.23,1.7.42,2.56.55h.04c.06.01.12.02.18.02.69.12,1.36.21,2.05.27h.06c.66.05,1.32.07,1.97.07,4.17,0,8.3-1.01,12.08-2.99l63.71-33.34.23-.12.25-.12.12-.25.12-.23-.23.12ZM349.46,224.71h-.01c-.34.1-.67.22-1.02.37l-1.56.81s-.02.01-.04.02l-.92.48s-.09.04-.12.06l-1.84.97-57.36,30.02-.26.13h-.01l-.25.13-.15.23h0s-.13.25-.13.25l.25-.12h.01l.26-.13,56.22-29.43.71-.37.92-.49,4.36-2.28,1.03-.53s0-.01.01-.01c0,0,.01-.01.02,0,0,0,.01-.02.02-.01l.63-.34c-.27.07-.53.15-.78.25ZM362.83,276.17h-.01l-.22.12-.13.23h0s-.12.25-.12.25l.23-.12.25-.12.12-.25.12-.23-.23.12Z"/>
    </g>
    <g>
      <path class="cls-2" d="M314.1,368.18l-.09.16-.09.17h-.17s-12.64,1.09-12.64,1.09c-.61.05-1.23.07-1.83.07-4.94,0-9.67-1.72-13.49-4.94-4.29-3.62-6.91-8.68-7.39-14.27-.11-1.25-.1-2.49.01-3.69.01-.13.02-.27.05-.4h0s.18-.36.18-.36l.21-.38h0s6.45-12.18,6.45-12.18l.2-.37h.01s.17-.37.17-.37h.01l11.61-21.93.12-.23.13-.25.23-.12-.12.23-.12.25-11.55,21.78-.17.33h0s-.18.36-.18.36l-6.86,12.94c-.17,1.43-.2,2.89-.07,4.36.47,5.5,3.05,10.5,7.28,14.06,4.23,3.57,9.6,5.27,15.1,4.79l12.82-1.1h.18Z"/>
      <path class="cls-2" d="M374.34,254.42l-11.51,21.74h-.01l-.11.23h-.01l-.12.25-25.26,47.7-.09.16-.09.17h-.18s.1-.16.1-.16l.07-.15,25.21-47.6.12-.23h0s.13-.25.13-.25l11.61-21.93c5.34-10.09,1.48-22.64-8.59-27.98-3.09-1.63-6.4-2.4-9.66-2.4-2.55,0-5.06.48-7.43,1.38l-4.36,2.28-.92.49c.26-.21.53-.4.8-.59.56-.4,1.15-.76,1.75-1.09.04-.02.07-.05.12-.06l.92-.48s.02-.02.04-.02c.56-.27,1.14-.51,1.72-.72h.01c.32-.13.64-.25.96-.33,0,0,0-.01.01-.01,0,0,.01-.01.02,0,0,0,.01-.02.02-.01,2.03-.66,4.17-.99,6.32-.99,3.28,0,6.62.78,9.73,2.43,10.19,5.39,14.06,18,8.67,28.18Z"/>
      <path class="cls-2" d="M297.56,310.31l-.25.12-.12.25-.12.23-11.69,22.07-.21.38h0s-.21.42-.21.42l-6.03,11.37-.22.4s-.01.02-.01.02l-.2.37c-.01.13-.04.26-.04.4h0c-.02.15-.04.28-.05.42l.18-.34.18-.36,6.86-12.94.18-.34h0s.17-.34.17-.34l11.55-21.78.12-.25.12-.23-.23.12ZM314.1,368.18h-.18s-.07.17-.07.17l-.09.17h.17s.18-.04.18-.04l.09-.16.09-.16h-.18ZM365.75,226.11c-4.95-2.62-10.49-3.05-15.5-1.64-.27.07-.53.15-.78.25h-.01c-.34.1-.67.22-1.02.37-1.58.58-3.08,1.37-4.47,2.34-.28.18-.54.38-.81.59,0,0-.01,0-.01.01-.21.15-.4.31-.6.48l.71-.37.92-.49c.7-.48,1.42-.91,2.16-1.29.06-.04.11-.07.17-.1.02-.01.05-.02.07-.04s.05-.02.06-.04c.04-.02.09-.04.12-.06.02-.01.04-.02.06-.02.56-.27,1.13-.53,1.72-.74,2.37-.91,4.88-1.38,7.43-1.38,3.26,0,6.57.77,9.66,2.4,10.07,5.34,13.94,17.89,8.59,27.98l-11.61,21.93-.13.23h0s-.12.25-.12.25l-25.21,47.6-.07.15-.1.17h.18s.18-.04.18-.04l.09-.16.09-.16,25.32-47.81.12-.25.12-.23,11.41-21.55c5.43-10.23,1.51-22.97-8.73-28.39Z"/>
    </g>
    <g>
      <path class="cls-2" d="M339.1,366.35c-10.75,8.43-22.54,15.61-35.15,21.31-.07.04-.15.07-.22.1-.07.04-.15.07-.22.1-16.86,7.57-35.18,12.5-54.39,14.25-.06,0-.11.01-.17.01h-.01c-.06.01-.12.01-.18.02-5.07.44-10.2.67-15.38.67-51.12,0-97.02-22.38-128.42-57.88l127.46-98.14-35.32,61.17c-7.19,12.48-2.9,28.48,9.56,35.69,3.98,2.29,8.31,3.42,12.61,3.49h.06c.66.05,1.32.07,1.97.07,4.17,0,8.3-1.01,12.08-2.99l63.71-33.34-11.69,22.07-.21.38h0s-.21.42-.21.42l-6.03,11.37-.22.4s-.01.02-.01.02l-.2.37c-.01.13-.04.26-.04.4h0c-.02.15-.04.28-.05.42-.11,1.2-.12,2.44-.01,3.69.48,5.59,3.1,10.65,7.39,14.27,3.82,3.22,8.56,4.94,13.49,4.94.6,0,1.21-.02,1.83-.07l12.64-1.08h.17s.18-.04.18-.04l24.99-2.13Z"/>
      <path class="cls-2" d="M339.54,366.01c-.07.05-.13.1-.21.16l-25.14,2.16h-.18s-.17.02-.17.02l-12.73,1.09c-.61.05-1.21.07-1.81.07-10.71,0-19.81-8.2-20.74-19.06-.12-1.36-.1-2.71.05-4.02.01-.15.02-.28.05-.42.01-.15.04-.28.05-.43,0,0,0-.01.01-.02l.22-.4,6.03-11.37.21-.4h0c.11-.11.21-.21.33-.29h.01c.1-.12.21-.21.32-.29l-.18.34-6.86,12.94c-.17,1.43-.2,2.89-.07,4.36.47,5.5,3.05,10.5,7.28,14.06,4.23,3.57,9.6,5.27,15.1,4.79l12.82-1.1h.18s.18-.02.18-.02l25.26-2.16Z"/>
      <path class="cls-2" d="M379.63,320.88c-.04.06-.06.11-.11.16l-42.2,3.62-.18.02h-.18s.1-.16.1-.16h.17s.18-.02.18-.02l42.22-3.62Z"/>
      <path class="cls-2" d="M314.28,368.16h-.18s-.18.02-.18.02l-12.82,1.1c-5.5.48-10.87-1.23-15.1-4.79-4.23-3.55-6.81-8.56-7.28-14.06-.12-1.47-.1-2.93.07-4.36.02-.15.05-.29.07-.44h0c.01-.17.04-.32.07-.48l-.22.4s-.01.02-.01.02l-.2.37c-.01.13-.04.26-.04.4h0c-.02.15-.04.28-.05.42-.11,1.2-.12,2.44-.01,3.69.48,5.59,3.1,10.65,7.39,14.27,3.82,3.22,8.56,4.94,13.49,4.94.6,0,1.21-.02,1.83-.07l12.64-1.08h.17s.18-.04.18-.04l24.99-2.13c.07-.06.16-.12.23-.18s.13-.11.21-.16l-25.26,2.16ZM285.65,333.13l.18-.34h0s.17-.34.17-.34c-.11.09-.21.17-.31.27h-.01c-.11.1-.21.17-.31.27l-.21.38h0s-.21.42-.21.42c.11-.12.23-.23.34-.33.11-.11.23-.21.34-.32ZM337.5,324.33h-.18s-.18.04-.18.04l-.07.15-.1.17h.18s.18-.04.18-.04l42.2-3.62s.07-.1.11-.16c.04-.05.06-.1.09-.16l-42.22,3.62Z"/>
    </g>
  </g>
</svg>