<?xml version="1.0" encoding="UTF-8"?>
<svg id="Layer_1" data-name="Layer 1" xmlns="http://www.w3.org/2000/svg" xmlns:xlink="http://www.w3.org/1999/xlink" viewBox="0 0 455.7 455.7">
  <defs>
    <style>
      .cls-1 {
        fill: url(#linear-gradient);
      }

      .cls-1, .cls-2 {
        stroke-width: 0px;
      }

      .cls-2 {
        fill: #fff;
      }
    </style>
    <linearGradient id="linear-gradient" x1="23.53" y1="406.08" x2="409.12" y2="69.74" gradientUnits="userSpaceOnUse">
      <stop offset="0" stop-color="#210c35"/>
      <stop offset=".31" stop-color="#3a1850"/>
      <stop offset=".76" stop-color="#592770"/>
      <stop offset="1" stop-color="#652d7d"/>
    </linearGradient>
  </defs>
  <rect class="cls-1" x="0" y="0" width="455.7" height="455.7"/>
  <g>
    <g>
      <path class="cls-2" d="M120.96,115.95c.69-17,6.97-37.51,17.38-57.04,22.05-11.49,46.66-18.77,72.75-20.73-.92,4.26-2.12,8.64-3.56,13.07-3.48,10.64-8.37,21.6-14.47,32.15-12.18,21.1-28.17,38.9-43.87,48.85-12.14,7.69-20.28,8.31-22.79,6.86-2.52-1.46-6.04-8.82-5.45-23.17Z"/>
      <path class="cls-2" d="M342.94,78.71l-41.71,32.11-.34.26h-.01s-.35.3-.35.3L52.71,302.2c-10.23-23.23-15.91-48.91-15.91-75.92,0-37.81,11.12-73.01,30.27-102.52,1.17,27.82,12.01,50.32,32.36,62.07,9.17,5.3,19.31,7.93,30.06,7.93,15.32,0,31.85-5.35,48.56-15.94,11.58-7.35,22.86-17,33.31-28.43,10.46-11.42,20.11-24.61,28.41-39.02,12.96-22.42,21.75-46.16,25.54-68.5,21.98,4.73,42.54,13.3,60.94,24.95.05.03.11.07.15.09.05.03.09.05.13.09,5.69,3.6,11.17,7.51,16.41,11.7Z"/>
      <path class="cls-2" d="M343.21,78.92l-42.41,32.66-.35.27h-.01l-.35.28L52.85,302.52c-.03-.05-.05-.11-.07-.16-.03-.05-.05-.11-.07-.16l247.82-190.83.35-.28h.01s.34-.27.34-.27l41.71-32.11s.09.07.13.11c.04.03.08.07.13.11Z"/>
      <path class="cls-2" d="M342.26,374.42c-.08.05-.15.11-.23.18s-.18.13-.26.2l-27.49,2.35-.2.03h-.19s-13.9,1.2-13.9,1.2c-.67.05-1.35.08-2.01.08-5.43,0-10.64-1.89-14.85-5.43-4.72-3.98-7.61-9.55-8.13-15.7-.12-1.38-.11-2.74.01-4.06.01-.15.03-.3.05-.45h0c0-.18.03-.31.04-.46l.22-.4s0-.01.01-.03l.24-.45,6.63-12.51.23-.45h0s.23-.43.23-.43l12.86-24.29-70.09,36.68c-4.17,2.18-8.71,3.29-13.3,3.29-.71,0-1.44-.03-2.17-.08h-.07c-4.73-.08-9.49-1.32-13.88-3.84-13.71-7.93-18.43-25.54-10.52-39.27l38.86-67.3-140.23,107.97s-.08-.08-.11-.12c-.05-.04-.09-.08-.12-.13l140.9-108.5.35-.27.35-.27-.23.39h0s-.22.38-.22.38l-39.27,68.02c-7.83,13.57-3.17,30.97,10.4,38.81,2.66,1.52,5.45,2.59,8.29,3.18.03.01.07.01.09.03.8.18,1.62.3,2.41.36.01.01.03.01.04.01l.31.05c.86.09,1.74.15,2.6.16h.05c.98.08,1.98.09,2.97.05.05,0,.11,0,.16-.01.76-.01,1.5-.05,2.22-.15,3.43-.39,6.78-1.42,9.91-3.06l70.52-36.91.27-.13.26-.13-.13.26-.13.27-12.7,23.96-.19.36h0s-.2.39-.2.39l-7.55,14.24c-.19,1.58-.22,3.18-.08,4.8.51,6.05,3.36,11.56,8.01,15.47,4.65,3.92,10.56,5.8,16.61,5.27l14.1-1.21h.2s.2-.03.2-.03l27.79-2.37Z"/>
      <path class="cls-2" d="M386.46,324.6c-.03.07-.05.12-.09.18-.04.07-.07.12-.12.18l-46.43,3.98-.2.03h-.2s.11-.18.11-.18l.08-.16,27.74-52.37.13-.26h0s.15-.27.15-.27l12.77-24.12c5.88-11.1,1.63-24.91-9.45-30.79-3.4-1.79-7.04-2.64-10.63-2.64-2.8,0-5.57.53-8.17,1.52l-4.8,2.51-1.01.54-.78.4-61.85,32.38-.28.15h-.01l-.27.13.15-.26h0s.16-.27.16-.27l59.74-103.48.22-.36h0s.24-.42.24-.42l26.44-45.82c.05.04.09.09.12.13.05.05.09.09.12.15l-25.98,45-.23.39h0s-.22.39-.22.39l-59.88,103.72,63.11-33.02c1.54-1.07,3.18-1.94,4.92-2.58.38-.16.74-.3,1.12-.4h.01c.28-.11.57-.19.86-.27,5.52-1.55,11.61-1.08,17.06,1.81,11.26,5.96,15.57,19.97,9.6,31.23l-12.55,23.71-.13.26-.13.27-27.86,52.6,46.45-3.98Z"/>
    </g>
    <g>
      <path class="cls-2" d="M300.09,112.13L52.85,302.52c-.03-.05-.05-.11-.07-.16l247.52-190.6h0s.36-.28.36-.28l.35-.27,42.06-32.39s.08.07.13.11l-42.41,32.66-.35.27h-.01l-.35.28Z"/>
      <path class="cls-2" d="M225.17,242.23l.35-.27-.23.39h0s-.35.27-.35.27h0s-.35.27-.35.27h0s-140.55,108.24-140.55,108.24c-.05-.04-.09-.08-.12-.13l140.9-108.5.35-.27Z"/>
      <path class="cls-2" d="M414.09,226.28c0,8.85-.61,17.54-1.79,26.05,0,.07-.01.13-.03.2,0,.07-.01.13-.03.2-3.65,26.04-12.62,50.36-25.78,71.86l-46.45,3.98,27.86-52.6.13-.27.13-.26,12.55-23.71c5.97-11.26,1.66-25.27-9.6-31.23-5.45-2.89-11.54-3.36-17.06-1.81-.3.08-.58.16-.86.27h-.01c-.38.11-.74.24-1.12.4-1.74.63-3.38,1.51-4.92,2.58l-63.11,33.02,59.88-103.72.22-.38h0s.23-.4.23-.4l25.98-45c4.23,5.06,8.2,10.34,11.88,15.83.03.04.07.09.11.15.03.05.05.09.08.15,13.4,20.04,23.06,42.79,27.99,67.25,0,.05.01.11.03.18.01.05.03.11.04.16,2.39,11.99,3.64,24.39,3.64,37.1Z"/>
      <path class="cls-2" d="M370.32,105.47l-25.98,45-.23.39h0s-.36.28-.36.28h0s-.35.27-.35.27l.24-.4,26.44-45.82c.05.04.09.09.12.13.05.05.09.09.12.15Z"/>
      <path class="cls-2" d="M415.3,23.19c-.01.08-.03.16-.03.24l-.19.15h-.01l-.19.15c.01-.08.03-.15.03-.23h0s.2-.16.2-.16l.19-.15Z"/>
      <path class="cls-2" d="M343.08,78.81s-.09-.08-.13-.11l-41.71,32.11-.34.26h-.01s-.35.3-.35.3L52.71,302.2c.01.05.04.11.07.16.01.05.04.11.07.16l247.24-190.39.35-.28h.01l.35-.27,42.41-32.66c-.05-.04-.09-.08-.13-.11ZM343.98,150.73h-.01s-.34.28-.34.28l-.24.4h0s-.22.38-.22.38l.35-.27.36-.27.22-.38h0s.23-.4.23-.4l-.35.26ZM225.17,242.23l-.35.27-140.9,108.5c.03.05.07.09.12.13.03.04.07.08.11.12l140.23-107.97.35-.28.35-.27.22-.36h0s.23-.4.23-.4l-.35.27ZM415.15,23.09l-.2.16c-.01.08-.03.15-.04.23h0c0,.09-.01.16-.03.24l.19-.15h.01l.19-.15c0-.08.01-.16.03-.24s.01-.16.03-.23l-.18.13Z"/>
    </g>
    <g>
      <path class="cls-2" d="M296.07,313.15l-.27.13-70.52,36.91c-3.13,1.65-6.49,2.67-9.91,3.06-.73.09-1.47.13-2.22.15-.05.01-.11.01-.16.01-.98.04-1.98.03-2.97-.05h-.05c-.86-.01-1.74-.07-2.6-.16.93.16,1.86.27,2.8.34h.04c.65.04,1.28.07,1.93.07h.38c.11-.01.22-.01.31-.01,4.23-.09,8.52-1.15,12.54-3.25l70.31-36.79.26-.13.27-.15.13-.26-.26.13ZM371.09,220.51c-5.45-2.89-11.54-3.36-17.06-1.81-.3.08-.58.16-.86.27h-.01l-.93.49h-.01s-1.96,1.04-1.96,1.04c-.03,0-.04.01-.07.03-.04.03-.09.04-.13.07-.01.01-.04.03-.07.04s-.05.03-.08.04c-.07.03-.12.07-.19.11l-2.51,1.31-.98.51s-.01,0-.01.01l-62.37,32.62h0s-.28.15-.28.15h0s-.28.15-.28.15h0s-.15.27-.15.27l.27-.13h.01l.28-.15,61.85-32.38.78-.4,1.01-.54,4.8-2.51c2.6-1,5.37-1.52,8.17-1.52,3.59,0,7.23.85,10.63,2.64,11.08,5.88,15.33,19.69,9.45,30.79l-12.77,24.12-.15.26.26-.13h.01l.26-.13.13-.26,12.55-23.71c5.97-11.26,1.66-25.27-9.6-31.23Z"/>
      <path class="cls-2" d="M296.07,313.15l-.27.13-70.52,36.91c-3.13,1.65-6.49,2.67-9.91,3.06-.73.09-1.47.13-2.22.15-.05.01-.11.01-.16.01-.98.04-1.98.03-2.97-.05h-.05c-.86-.01-1.74-.07-2.6-.16l-.31-.05s-.03,0-.04-.01c-.8-.07-1.62-.19-2.41-.36.93.26,1.87.46,2.82.61h.04c.07.01.13.03.2.03.76.13,1.5.23,2.25.3h.07c.73.05,1.46.08,2.17.08,4.58,0,9.13-1.11,13.3-3.29l70.09-36.68.26-.13.27-.13.13-.27.13-.26-.26.13ZM353.16,218.97h-.01c-.38.11-.74.24-1.12.4l-1.71.89s-.03.01-.04.03l-1.01.53c-.05.01-.09.04-.13.07l-2.02,1.07-63.11,33.02-.28.15h-.01l-.27.15-.16.26h0s-.15.27-.15.27l.27-.13h.01l.28-.15,61.85-32.38.78-.4,1.01-.54,4.8-2.51,1.13-.58s0-.01.01-.01c0,0,.01-.01.03,0,0,0,.01-.03.03-.01l.69-.38c-.3.08-.58.16-.86.27ZM367.88,275.58h-.01l-.24.13-.15.26h0s-.13.27-.13.27l.26-.13.27-.13.13-.27.13-.26-.26.13Z"/>
    </g>
    <g>
      <path class="cls-2" d="M314.26,376.81l-.09.18-.09.19h-.19s-13.9,1.2-13.9,1.2c-.67.05-1.35.08-2.01.08-5.43,0-10.64-1.89-14.85-5.43-4.72-3.98-7.61-9.55-8.13-15.7-.12-1.38-.11-2.74.01-4.06.01-.15.03-.3.05-.45h0s.2-.39.2-.39l.23-.42h0s7.09-13.4,7.09-13.4l.22-.4h.01s.19-.4.19-.4h.01l12.77-24.12.13-.26.15-.27.26-.13-.13.26-.13.27-12.7,23.96-.19.36h0s-.2.39-.2.39l-7.55,14.24c-.19,1.58-.22,3.18-.08,4.8.51,6.05,3.36,11.56,8.01,15.47,4.65,3.92,10.56,5.8,16.61,5.27l14.1-1.21h.2Z"/>
      <path class="cls-2" d="M380.54,251.66l-12.66,23.92h-.01l-.12.26h-.01l-.13.27-27.79,52.48-.09.18-.09.19h-.2s.11-.18.11-.18l.08-.16,27.74-52.37.13-.26h0s.15-.27.15-.27l12.77-24.12c5.88-11.1,1.63-24.91-9.45-30.79-3.4-1.79-7.04-2.64-10.63-2.64-2.8,0-5.57.53-8.17,1.52l-4.8,2.51-1.01.54c.28-.23.58-.45.88-.65.62-.44,1.27-.84,1.93-1.2.04-.03.08-.05.13-.07l1.01-.53s.03-.03.04-.03c.62-.3,1.25-.57,1.89-.8h.01c.35-.15.7-.27,1.05-.36,0,0,0-.01.01-.01,0,0,.01-.01.03,0,0,0,.01-.03.03-.01,2.24-.73,4.58-1.09,6.96-1.09,3.61,0,7.28.86,10.71,2.67,11.21,5.93,15.47,19.81,9.53,31Z"/>
      <path class="cls-2" d="M296.07,313.15l-.27.13-.13.27-.13.26-12.86,24.29-.23.42h0s-.23.46-.23.46l-6.63,12.51-.24.45s-.01.03-.01.03l-.22.4c-.01.15-.04.28-.04.44h0c-.03.16-.04.31-.05.46l.2-.38.2-.39,7.55-14.24.2-.38h0s.19-.38.19-.38l12.7-23.96.13-.27.13-.26-.26.13ZM314.26,376.81h-.2s-.08.19-.08.19l-.09.19h.19s.2-.04.2-.04l.09-.18.09-.18h-.2ZM371.09,220.51c-5.45-2.89-11.54-3.36-17.06-1.81-.3.08-.58.16-.86.27h-.01c-.38.11-.74.24-1.12.4-1.74.63-3.38,1.51-4.92,2.58-.31.2-.59.42-.89.65,0,0-.01,0-.01.01-.23.16-.45.34-.66.53l.78-.4,1.01-.54c.77-.53,1.56-1,2.37-1.42.07-.04.12-.08.19-.11.03-.01.05-.03.08-.04s.05-.03.07-.04c.04-.03.09-.04.13-.07.03-.01.04-.03.07-.03.62-.3,1.24-.58,1.89-.81,2.6-1,5.37-1.52,8.17-1.52,3.59,0,7.23.85,10.63,2.64,11.08,5.88,15.33,19.69,9.45,30.79l-12.77,24.12-.15.26h0s-.13.27-.13.27l-27.74,52.37-.08.16-.11.19h.2s.2-.04.2-.04l.09-.18.09-.18,27.86-52.6.13-.27.13-.26,12.55-23.71c5.97-11.26,1.66-25.27-9.6-31.23Z"/>
    </g>
    <g>
      <path class="cls-2" d="M341.77,374.8c-11.83,9.28-24.8,17.18-38.67,23.45-.08.04-.16.08-.24.11-.08.04-.16.08-.24.11-18.55,8.33-38.7,13.75-59.84,15.68-.07,0-.12.01-.19.01h-.01c-.07.01-.13.01-.2.03-5.58.49-11.22.74-16.92.74-56.24,0-106.74-24.62-141.29-63.67l140.23-107.97-38.86,67.3c-7.92,13.73-3.2,31.34,10.52,39.27,4.38,2.52,9.14,3.76,13.88,3.84h.07c.73.05,1.46.08,2.17.08,4.58,0,9.13-1.11,13.3-3.29l70.09-36.68-12.86,24.29-.23.42h0s-.23.46-.23.46l-6.63,12.51-.24.45s-.01.03-.01.03l-.22.4c-.01.15-.04.28-.04.44h0c-.03.16-.04.31-.05.46-.12,1.32-.13,2.68-.01,4.06.53,6.15,3.41,11.72,8.13,15.7,4.21,3.55,9.41,5.43,14.85,5.43.66,0,1.33-.03,2.01-.08l13.9-1.19h.19s.2-.04.2-.04l27.49-2.35Z"/>
      <path class="cls-2" d="M342.26,374.42c-.08.05-.15.11-.23.18l-27.66,2.37h-.2s-.19.03-.19.03l-14.01,1.2c-.67.05-1.33.08-2,.08-11.79,0-21.79-9.02-22.82-20.97-.13-1.5-.11-2.98.05-4.42.01-.16.03-.31.05-.46.01-.16.04-.31.05-.47,0,0,0-.01.01-.03l.24-.45,6.63-12.51.23-.45h0c.12-.12.23-.23.36-.32h.01c.11-.13.23-.23.35-.32l-.2.38-7.55,14.24c-.19,1.58-.22,3.18-.08,4.8.51,6.05,3.36,11.56,8.01,15.47,4.65,3.92,10.56,5.8,16.61,5.27l14.1-1.21h.2s.2-.03.2-.03l27.79-2.37Z"/>
      <path class="cls-2" d="M386.36,324.77c-.04.07-.07.12-.12.18l-46.43,3.98-.2.03h-.2s.11-.18.11-.18h.19s.2-.03.2-.03l46.45-3.98Z"/>
      <path class="cls-2" d="M314.46,376.79h-.2s-.2.03-.2.03l-14.1,1.21c-6.05.53-11.96-1.35-16.61-5.27-4.65-3.91-7.5-9.41-8.01-15.47-.13-1.62-.11-3.22.08-4.8.03-.16.05-.32.08-.49h0c.01-.19.04-.35.08-.53l-.24.45s-.01.03-.01.03l-.22.4c-.01.15-.04.28-.04.44h0c-.03.16-.04.31-.05.46-.12,1.32-.13,2.68-.01,4.06.53,6.15,3.41,11.72,8.13,15.7,4.21,3.55,9.41,5.43,14.85,5.43.66,0,1.33-.03,2.01-.08l13.9-1.19h.19s.2-.04.2-.04l27.49-2.35c.08-.07.18-.13.26-.2s.15-.12.23-.18l-27.79,2.37ZM282.96,338.26l.2-.38h0s.19-.38.19-.38c-.12.09-.23.19-.34.3h-.01c-.12.11-.23.19-.34.3l-.23.42h0s-.23.46-.23.46c.12-.13.26-.26.38-.36.12-.12.26-.23.38-.35ZM340,328.57h-.2s-.2.04-.2.04l-.08.16-.11.19h.2s.2-.04.2-.04l46.43-3.98c.05-.05.08-.11.12-.18.04-.05.07-.11.09-.18l-46.45,3.98Z"/>
    </g>
  </g>
</svg>